<svg xmlns="http://www.w3.org/2000/svg" width="820" height="220" viewBox="0 0 820 220" role="img" aria-labelledby="title desc">
  <title id="title">Contabilidade Melo</title>
  <desc id="desc">Logo em azul-marinho da Contabilidade Melo com emblema circular e tipografia elegante.</desc>
  <defs>
    <linearGradient id="panel" x1="0" y1="0" x2="1" y2="1">
      <stop offset="0" stop-color="#0b1f3a"/>
      <stop offset="1" stop-color="#163c66"/>
    </linearGradient>
    <linearGradient id="silver" x1="0" y1="0" x2="1" y2="1">
      <stop offset="0" stop-color="#f8fbff"/>
      <stop offset="1" stop-color="#b8c6d6"/>
    </linearGradient>
    <filter id="shadow" x="-20%" y="-20%" width="140%" height="140%">
      <feDropShadow dx="0" dy="8" stdDeviation="8" flood-color="#071428" flood-opacity="0.25"/>
    </filter>
  </defs>

  <rect width="820" height="220" fill="#ffffff"/>

  <g filter="url(#shadow)">
    <rect x="118" y="48" width="660" height="124" rx="28" fill="url(#panel)"/>
    <rect x="126" y="56" width="644" height="108" rx="22" fill="none" stroke="url(#silver)" stroke-width="3" opacity="0.65"/>
  </g>

  <g transform="translate(36 26)" filter="url(#shadow)">
    <circle cx="84" cy="84" r="78" fill="#ffffff" stroke="#0b1f3a" stroke-width="8"/>
    <circle cx="84" cy="84" r="61" fill="none" stroke="#c7d2df" stroke-width="3"/>
    <path d="M84 38v92" stroke="#0b1f3a" stroke-width="8" stroke-linecap="round"/>
    <path d="M58 62c16-14 36-14 52 0M58 106c16 14 36 14 52 0" fill="none" stroke="#0b1f3a" stroke-width="8" stroke-linecap="round"/>
    <path d="M84 62c-28 16-28 34 0 48c28 16 28 34 0 48" fill="none" stroke="#163c66" stroke-width="6" stroke-linecap="round"/>
    <path d="M44 82c18 2 28 11 33 28c-19-2-30-11-33-28zM124 82c-18 2-28 11-33 28c19-2 30-11 33-28z" fill="#163c66" opacity="0.92"/>
  </g>

  <text x="230" y="104" fill="#ffffff" font-family="Georgia, 'Times New Roman', serif" font-size="38" font-weight="600" letter-spacing="0.4">Contabilidade</text>
  <text x="504" y="116" fill="#ffffff" font-family="Georgia, 'Times New Roman', serif" font-size="62" font-style="italic" font-weight="700">Melo</text>
  <path d="M226 133h464" stroke="#c7d2df" stroke-width="2" opacity="0.7"/>
  <text x="232" y="154" fill="#dce6f2" font-family="Arial, Helvetica, sans-serif" font-size="15" letter-spacing="4">ORGANIZAÇÃO • CONFIANÇA • RESULTADOS</text>
</svg>
